<?xml version="1.0" encoding="UTF-8" standalone="no"?>
<!-- Created with Inkscape (http://www.inkscape.org/) -->

<svg
   xmlns:dc="http://purl.org/dc/elements/1.1/"
   xmlns:cc="http://creativecommons.org/ns#"
   xmlns:rdf="http://www.w3.org/1999/02/22-rdf-syntax-ns#"
   xmlns:svg="http://www.w3.org/2000/svg"
   xmlns="http://www.w3.org/2000/svg"
   xmlns:sodipodi="http://sodipodi.sourceforge.net/DTD/sodipodi-0.dtd"
   xmlns:inkscape="http://www.inkscape.org/namespaces/inkscape"
   width="207mm"
   height="297mm"
   viewBox="0 0 144.9 207.89999"
   version="1.1"
   id="svg8"
   inkscape:version="0.92.2 2405546, 2018-03-11"
   sodipodi:docname="logo_1.svg">
  <defs
     id="defs2">
    <clipPath
       clipPathUnits="userSpaceOnUse"
       id="clipPath1090">
      <rect
         style="fill:#d93426;fill-opacity:1;stroke:none;stroke-width:0.71778816;stroke-miterlimit:4;stroke-dasharray:none"
         id="rect1092"
         width="7"
         height="17.872791"
         x="72.096344"
         y="132.29907" />
    </clipPath>
    <clipPath
       clipPathUnits="userSpaceOnUse"
       id="clipPath1159">
      <path
         style="fill:none;stroke:#000000;stroke-width:1.99999988;stroke-linecap:butt;stroke-linejoin:miter;stroke-miterlimit:4;stroke-dasharray:none;stroke-opacity:1"
         d="M 75.754904,190.98074 C 62.688532,176.74835 26.534163,194.03668 20.308461,71.280815 c 0,0 18.08524,6.81537 28.130117,0 10.178515,6.41447 18.753409,0 28.130114,0 9.376711,0 18.274233,6.89135 28.130118,0 9.89781,6.62408 28.13013,0 28.13013,0 C 125.42908,192.93661 88.749715,176.69915 75.754904,190.98074 Z"
         id="path1161"
         inkscape:connector-curvature="0"
         sodipodi:nodetypes="ccczccc" />
    </clipPath>
    <clipPath
       clipPathUnits="userSpaceOnUse"
       id="clipPath1244">
      <path
         style="fill:none;stroke:#000000;stroke-width:1.99999988;stroke-linecap:butt;stroke-linejoin:miter;stroke-miterlimit:4;stroke-dasharray:none;stroke-opacity:1"
         d="M 75.754904,190.98074 C 62.688532,176.74835 26.534163,194.03668 20.308461,71.280817 c 0,0 18.08524,6.815368 28.130117,0 10.178515,6.414468 18.753409,0 28.130114,0 9.376711,0 18.274231,6.89135 28.130118,0 9.89781,6.624079 28.13012,0 28.13012,0 C 125.42908,192.93661 88.749713,176.69915 75.754904,190.98074 Z"
         id="path1246"
         inkscape:connector-curvature="0"
         sodipodi:nodetypes="ccczccc" />
    </clipPath>
    <clipPath
       clipPathUnits="userSpaceOnUse"
       id="clipPath1254">
      <path
         style="fill:none;stroke:#000000;stroke-width:1.99999988;stroke-linecap:butt;stroke-linejoin:miter;stroke-miterlimit:4;stroke-dasharray:none;stroke-opacity:1"
         d="M 75.754902,191.35118 C 62.68853,177.11878 26.534161,194.40711 20.308459,71.651233 c 0,0 18.08524,6.815371 28.130117,0 10.178515,6.414471 18.753409,0 28.130115,0 9.376709,0 18.274228,6.891351 28.130119,0 9.89781,6.62408 28.13012,0 28.13012,0 C 125.42908,193.30703 88.749709,177.06958 75.754902,191.35118 Z"
         id="path1256"
         inkscape:connector-curvature="0"
         sodipodi:nodetypes="ccczccc" />
    </clipPath>
    <clipPath
       clipPathUnits="userSpaceOnUse"
       id="clipPath1264">
      <path
         style="fill:none;stroke:#000000;stroke-width:1.99999988;stroke-linecap:butt;stroke-linejoin:miter;stroke-miterlimit:4;stroke-dasharray:none;stroke-opacity:1"
         d="m 75.754902,190.98074 c -13.06637,-14.23239 -49.220741,3.05594 -55.446443,-119.699923 0,0 18.08524,6.81537 28.130119,0 10.178515,6.41447 18.753409,0 28.130114,0 9.376711,0 18.274231,6.89135 28.130118,0 9.89781,6.624079 28.13012,0 28.13012,0 C 125.42908,192.93661 88.749713,176.69915 75.754902,190.98074 Z"
         id="path1266"
         inkscape:connector-curvature="0"
         sodipodi:nodetypes="ccczccc" />
    </clipPath>
    <clipPath
       clipPathUnits="userSpaceOnUse"
       id="clipPath1274">
      <path
         style="fill:none;stroke:#000000;stroke-width:1.99999988;stroke-linecap:butt;stroke-linejoin:miter;stroke-miterlimit:4;stroke-dasharray:none;stroke-opacity:1"
         d="M 75.7549,189.79852 C 62.68853,175.56613 26.534161,192.85446 20.308457,70.0986 c 0,0 18.085233,6.815371 28.130112,0 10.17852,6.414471 18.753411,0 28.130122,0 9.376709,0 18.274228,6.891351 28.130119,0 9.8978,6.62408 28.13012,0 28.13012,0 -7.39985,121.65579 -44.079221,105.41833 -57.07403,119.69992 z"
         id="path1276"
         inkscape:connector-curvature="0"
         sodipodi:nodetypes="ccczccc" />
    </clipPath>
    <clipPath
       clipPathUnits="userSpaceOnUse"
       id="clipPath1284">
      <path
         style="fill:none;stroke:#000000;stroke-width:1.99999988;stroke-linecap:butt;stroke-linejoin:miter;stroke-miterlimit:4;stroke-dasharray:none;stroke-opacity:1"
         d="m 75.7549,191.35116 c -13.06637,-14.2324 -49.220735,3.05593 -55.446438,-119.699927 0,0 18.085239,6.815371 28.130118,0 10.178521,6.414471 18.753411,0 28.130111,0 9.37672,0 18.274239,6.891351 28.130119,0 9.89781,6.62408 28.13012,0 28.13012,0 C 125.42908,193.30701 88.74972,177.06956 75.7549,191.35116 Z"
         id="path1286"
         inkscape:connector-curvature="0"
         sodipodi:nodetypes="ccczccc" />
    </clipPath>
    <clipPath
       clipPathUnits="userSpaceOnUse"
       id="clipPath1294">
      <path
         style="fill:none;stroke:#000000;stroke-width:1.99999988;stroke-linecap:butt;stroke-linejoin:miter;stroke-miterlimit:4;stroke-dasharray:none;stroke-opacity:1"
         d="M 75.754902,191.35116 C 62.68853,177.11876 26.534161,194.40709 20.308459,71.651233 c 0,0 18.08524,6.815371 28.130117,0 10.178515,6.414471 18.753409,0 28.130115,0 9.37671,0 18.274232,6.891351 28.130119,0 9.89781,6.62408 28.13012,0 28.13012,0 C 125.42908,193.30701 88.749711,177.06956 75.754902,191.35116 Z"
         id="path1296"
         inkscape:connector-curvature="0"
         sodipodi:nodetypes="ccczccc" />
    </clipPath>
  </defs>
  <sodipodi:namedview
     id="base"
     pagecolor="#ffffff"
     bordercolor="#666666"
     borderopacity="1.0"
     inkscape:pageopacity="0.0"
     inkscape:pageshadow="2"
     inkscape:zoom="0.70710678"
     inkscape:cx="178.60029"
     inkscape:cy="392.12212"
     inkscape:document-units="mm"
     inkscape:current-layer="layer1"
     showgrid="false"
     showguides="true"
     scale-x="0.7"
     inkscape:pagecheckerboard="true"
     fit-margin-left="0.2"
     inkscape:window-width="1366"
     inkscape:window-height="720"
     inkscape:window-x="0"
     inkscape:window-y="24"
     inkscape:window-maximized="0" />
  <metadata
     id="metadata5">
    <rdf:RDF>
      <cc:Work
         rdf:about="">
        <dc:format>image/svg+xml</dc:format>
        <dc:type
           rdf:resource="http://purl.org/dc/dcmitype/StillImage" />
        <dc:title />
      </cc:Work>
    </rdf:RDF>
  </metadata>
  <g
     inkscape:label="Layer 1"
     inkscape:groupmode="layer"
     id="layer1">
    <path
       style="fill:#fffffb;fill-opacity:1;stroke:none;stroke-width:2.15270019;stroke-linecap:butt;stroke-linejoin:miter;stroke-miterlimit:4;stroke-dasharray:none;stroke-opacity:1"
       d="m 75.533745,195.7962 c -14.063988,-15.31904 -52.978746,3.28926 -59.67978,-128.839058 0,0 19.466049,7.335723 30.277854,0 10.955645,6.904215 20.185233,0 30.27785,0 10.092623,0 19.66947,7.417505 30.277871,0 10.6535,7.129829 30.27785,0 30.27785,0 C 129.00056,197.9014 89.520712,180.42421 75.533745,195.7962 Z"
       id="path4661-3"
       inkscape:connector-curvature="0"
       sodipodi:nodetypes="ccczccc" />
    <rect
       style="fill:#efdd90;fill-opacity:1;stroke:none;stroke-width:1.31280363;stroke-miterlimit:4;stroke-dasharray:none"
       id="rect915-1"
       width="7"
       height="59.785995"
       x="105.18685"
       y="111.92616"
       clip-path="url(#clipPath1244)" />
    <rect
       style="fill:#efdd90;fill-opacity:1;stroke:none;stroke-width:0.98167473;stroke-miterlimit:4;stroke-dasharray:none"
       id="rect915-5"
       width="7"
       height="33.429909"
       x="119.18685"
       y="111.92616"
       clip-path="url(#clipPath1159)"
       transform="matrix(1,0,0,1.029086,0,-3.2554892)" />
    <path
       style="fill:#005dac;fill-opacity:1;stroke:none;stroke-width:1.88254976;stroke-linecap:butt;stroke-linejoin:miter;stroke-miterlimit:4;stroke-dasharray:none;stroke-opacity:1"
       d="m 26.897182,112.22353 c 0,0 -2.70453,-22.883036 -3.441526,-37.238547 0,0 17.127378,6.376109 26.640243,0 9.639423,6.001047 17.76016,0 26.640242,0 8.880083,0 17.306347,6.447191 26.640259,0 9.37358,6.197147 26.64024,0 26.64024,0 -0.87599,14.226865 -3.82979,36.941177 -3.82979,36.941177 z"
       id="path4661-3-7"
       inkscape:connector-curvature="0"
       sodipodi:nodetypes="ccczcccc" />
    <flowRoot
       xml:space="preserve"
       id="flowRoot848"
       style="font-style:normal;font-variant:normal;font-weight:normal;font-stretch:normal;font-size:40px;line-height:1.25;font-family:Freshman;-inkscape-font-specification:Freshman;letter-spacing:0px;word-spacing:0px;fill:#000000;fill-opacity:1;stroke:none"
       transform="matrix(0.18520833,0,0,0.18520833,-8.7047917,-19.817292)"><flowRegion
         id="flowRegion850"><rect
           id="rect852"
           width="526"
           height="353.99997"
           x="218"
           y="480.51968" /></flowRegion><flowPara
         id="flowPara854"
         style="font-size:213.33334351px">upbl</flowPara></flowRoot>    <rect
       style="fill:#efdd90;fill-opacity:1;stroke:none;stroke-width:1.4452368;stroke-miterlimit:4;stroke-dasharray:none"
       id="rect915-7"
       width="7"
       height="72.456604"
       x="54.897182"
       y="112.22353"
       clip-path="url(#clipPath1274)"
       transform="matrix(1,0,0,1.0180745,0.00578976,-2.1174329)" />
    <rect
       style="fill:#efdd90;fill-opacity:1;stroke:none;stroke-width:1.50160599;stroke-miterlimit:4;stroke-dasharray:none"
       id="rect915-01"
       width="7"
       height="78.218933"
       x="72.096344"
       y="111.92616"
       clip-path="url(#clipPath1284)"
       transform="matrix(1,0,0,0.99790712,0.74083334,0.39795025)" />
    <rect
       style="fill:#efdd90;fill-opacity:1;stroke:none;stroke-width:1.41836524;stroke-miterlimit:4;stroke-dasharray:none"
       id="rect915-03"
       width="7"
       height="69.787247"
       x="91.00164"
       y="111.92616"
       clip-path="url(#clipPath1294)"
       transform="matrix(1,0,0,0.99850718,0,0.27126513)" />
    <path
       id="path904"
       d="m 97.077146,134.70784 c 0.132452,-1.36251 -0.481527,-2.69904 -1.598981,-3.49301 -1.46827,-1.0403 -3.820121,-2.50097 -6.77089,-3.66386 l 6.718675,14.65007 c 1.044408,-2.9869 1.477041,-5.70406 1.651196,-7.4932 z m -41.737647,14.89504 c -0.132454,1.36252 0.481527,2.69905 1.598976,3.49302 1.468277,1.0403 3.820125,2.50096 6.770894,3.66386 l -6.718672,-14.65007 c -1.044436,2.98689 -1.477045,5.70406 -1.651198,7.49319 z m 3.549487,-11.73822 9.272581,20.23416 c 9.526593,2.02441 19.966945,-1.80962 25.372912,-11.65022 l -9.279403,-20.23669 c -9.526593,-2.02441 -19.966945,1.8096 -25.36609,11.65275 z"
       inkscape:connector-curvature="0"
       style="fill:#d93426;fill-opacity:1;stroke:none;stroke-width:0.07272881;stroke-opacity:1"
       sodipodi:nodetypes="ccccccccccccccc" />
    <path
       inkscape:connector-curvature="0"
       class="st3"
       d="m 70.362549,143.43325 c 0.890622,-2.0661 1.863321,-4.35399 1.863321,-4.35399 l -2.743651,-0.76305 c -0.221646,-0.0819 -0.291825,-0.23452 -0.431386,-0.53804 -0.06977,-0.15173 0.01231,-0.37339 0.316233,-0.51314 l 2.431021,-1.11779 c -0.05785,-0.52597 0.340498,-1.2609 0.796351,-1.4705 0.607717,-0.27943 1.203142,-0.18549 1.634669,0.3527 l 2.582962,-1.18766 c 0.15188,-0.0698 0.373632,0.012 0.59538,0.094 0.06976,0.15172 0.20972,0.45611 0.127627,0.67772 l -1.05482,2.50961 c 0.221646,0.0819 2.369965,0.75092 4.518143,1.41975 0.373617,0.012 3.643116,0.71769 3.405655,3.40372 -0.118662,1.34304 -1.100175,1.61031 -1.100175,1.61031 0,0 0.394758,1.65911 -1.067008,2.88341 -0.689907,0.50103 -1.355095,0.25537 -1.355095,0.25537 0,0 -0.02435,0.74761 -0.644414,1.40062 -0.2341,0.29145 -0.537966,0.43117 -0.993804,0.64077 -1.519392,0.69862 -2.686034,-0.23739 -2.686034,-0.23739 0,0 -0.246059,0.66571 -1.075937,0.86245 -1.810906,0.46494 -2.883429,-1.067 -2.883429,-1.067 0,0 -0.911628,0.41917 -1.938584,-0.21305 -2.053862,-1.26438 -0.309246,-4.27529 -0.297025,-4.64902"
       id="path18"
       style="fill:#ffffff;stroke:none;stroke-width:1.67231274;stroke-opacity:1"
       sodipodi:nodetypes="cccsscscscccccccccsccccc" />
    <rect
       style="fill:#efdd90;fill-opacity:1;stroke:none;stroke-width:1.32938957;stroke-miterlimit:4;stroke-dasharray:none"
       id="rect915-0"
       width="7"
       height="61.306213"
       x="40.897182"
       y="112.22353"
       clip-path="url(#clipPath1264)"
       transform="matrix(1.000534,0,0,1.000534,-0.02557944,-0.09267337)" />
    <path
       inkscape:connector-curvature="0"
       class="st3"
       d="m 69.621715,143.43325 c 0.890622,-2.0661 1.863321,-4.35399 1.863321,-4.35399 l -2.743651,-0.76305 c -0.221646,-0.0819 -0.291825,-0.23452 -0.431386,-0.53804 -0.06977,-0.15173 0.01231,-0.37339 0.316233,-0.51314 l 2.431021,-1.11779 c -0.05785,-0.52597 0.340498,-1.2609 0.796351,-1.4705 0.607717,-0.27943 1.203142,-0.18549 1.634669,0.3527 l 2.582962,-1.18766 c 0.15188,-0.0698 0.373632,0.012 0.59538,0.094 0.06976,0.15172 0.20972,0.45611 0.127627,0.67772 l -1.05482,2.50961 c 0.221646,0.0819 2.369965,0.75092 4.518143,1.41975 0.373617,0.012 3.643116,0.71769 3.405655,3.40372 -0.118662,1.34304 -1.100175,1.61031 -1.100175,1.61031 0,0 0.394758,1.65911 -1.067008,2.88341 -0.689907,0.50103 -1.355095,0.25537 -1.355095,0.25537 0,0 -0.02435,0.74761 -0.644414,1.40062 -0.2341,0.29145 -0.537966,0.43117 -0.993804,0.64077 -1.519392,0.69862 -2.686034,-0.23739 -2.686034,-0.23739 0,0 -0.246059,0.66571 -1.075937,0.86245 -1.810906,0.46494 -2.883429,-1.067 -2.883429,-1.067 0,0 -0.911628,0.41917 -1.938584,-0.21305 -2.053862,-1.26438 -0.309246,-4.27529 -0.297025,-4.64902"
       id="path18-4"
       style="fill:#efdd90;fill-opacity:1;stroke-width:1.67231274"
       sodipodi:nodetypes="cccsscscscccccccccsccccc"
       clip-path="url(#clipPath1090)"
       transform="translate(0.74083333)" />
    <rect
       style="fill:#efdd90;fill-opacity:1;stroke:none;stroke-width:1.03361094;stroke-miterlimit:4;stroke-dasharray:none"
       id="rect915-04"
       width="7"
       height="37.060738"
       x="26.897182"
       y="112.22353"
       clip-path="url(#clipPath1254)" />
    <path
       style="fill:none;stroke:#000000;stroke-width:1.99999988;stroke-linecap:butt;stroke-linejoin:miter;stroke-miterlimit:4;stroke-dasharray:none;stroke-opacity:1"
       d="M 75.754901,191.35116 C 62.68853,177.11877 26.534161,194.4071 20.308459,71.651233 c 0,0 18.085239,6.81537 28.130118,0 10.178515,6.41447 18.753409,0 28.130114,0 9.376711,0 18.274231,6.89135 28.130119,0 9.89781,6.62408 28.13012,0 28.13012,0 C 125.42908,193.30703 88.749712,177.06957 75.754901,191.35116 Z"
       id="path4661"
       inkscape:connector-curvature="0"
       sodipodi:nodetypes="ccczccc" />
  </g>
</svg>
